<?xml version="1.0" encoding="utf-8"?>
<!-- Generator: Adobe Illustrator 27.0.0, SVG Export Plug-In . SVG Version: 6.00 Build 0)  -->
<svg version="1.1" id="Layer_1" xmlns="http://www.w3.org/2000/svg" xmlns:xlink="http://www.w3.org/1999/xlink" x="0px" y="0px"
	 viewBox="0 0 423.44 97.23" style="enable-background:new 0 0 423.44 97.23;" xml:space="preserve">
<style type="text/css">
	.st0{fill:#4B286D;}
	.st1{fill:#66CC00;}
</style>
<path class="st0" d="M284.09,34.11c1.48,0,2.72,1.17,2.72,2.7s-1.24,2.73-2.72,2.73s-2.74-1.17-2.74-2.73S282.6,34.11,284.09,34.11z
	 M284.09,39.14c1.26,0,2.23-1,2.23-2.33s-0.97-2.3-2.23-2.3s-2.24,1-2.24,2.3S282.82,39.14,284.09,39.14z M283.03,35.23h1.23
	c0.75,0,1.11,0.3,1.11,0.91c0,0.57-0.36,0.81-0.84,0.86l0.91,1.4h-0.53l-0.86-1.36h-0.52v1.36h-0.49v-3.17L283.03,35.23z
	 M283.52,36.64h0.52c0.43,0,0.84-0.02,0.84-0.52c0-0.42-0.36-0.49-0.7-0.49h-0.65L283.52,36.64L283.52,36.64z"/>
<g>
	<path class="st0" d="M302.77,34.11h9.32c8.18,0,12.95,4.99,12.95,13.06s-4.77,13.06-12.95,13.06h-9.32V34.11L302.77,34.11z
		 M312.05,56.79c5.76,0,8.88-3.52,8.88-9.62s-3.12-9.61-8.88-9.61h-5.36v19.23H312.05z"/>
	<path class="st0" d="M327.87,36.57c0-1.21,0.99-2.24,2.24-2.24s2.24,0.99,2.24,2.24s-0.99,2.24-2.24,2.24
		S327.87,37.82,327.87,36.57z M328.27,41.3h3.67v18.94h-3.67C328.27,60.24,328.27,41.3,328.27,41.3z"/>
	<path class="st0" d="M336.24,61.56h3.67c0.29,2.24,1.95,3.34,4.73,3.34c3.45,0,5.32-1.8,5.32-5.28v-2.09
		c-1.36,1.87-3.41,2.94-6.09,2.94c-5.25,0-8.7-3.89-8.7-9.8s3.41-9.8,8.66-9.8c2.79,0,4.92,1.17,6.28,3.12v-2.68h3.52v18.24
		c0,4.95-2.97,8.33-9.03,8.33c-5.14,0-8-2.53-8.37-6.31L336.24,61.56z M350.07,50.66c0-4.22-2.17-6.64-5.54-6.64
		s-5.54,2.57-5.54,6.64s2.17,6.64,5.54,6.64S350.07,54.88,350.07,50.66z"/>
	<path class="st0" d="M357.38,36.57c0-1.21,0.99-2.24,2.24-2.24s2.24,0.99,2.24,2.24s-0.99,2.24-2.24,2.24
		S357.38,37.82,357.38,36.57z M357.78,41.3h3.67v18.94h-3.67C357.78,60.24,357.78,41.3,357.78,41.3z"/>
	<path class="st0" d="M367.07,56.02V44.31h-3.05V41.3h3.05v-5.43h3.67v5.43h3.82v3.01h-3.82v11.38c0,1.1,0.55,1.62,2.17,1.62h1.65
		v2.94c-0.81,0.07-1.58,0.11-2.24,0.11C368.91,60.36,367.07,59.19,367.07,56.02L367.07,56.02z"/>
	<path class="st0" d="M389.2,57.67c-1.28,1.98-3.41,3.01-6.17,3.01c-4.07,0-6.75-1.98-6.75-5.62c0-3.05,1.83-5.36,7.12-5.87
		l2.79-0.29c1.83-0.22,2.83-0.84,2.83-2.38c0-1.76-0.92-2.72-3.89-2.72s-4.22,0.84-4.4,3.41h-3.63c0.22-3.82,2.35-6.35,8.04-6.35
		s7.49,2.28,7.49,5.58v10.02c0,0.59,0.29,0.95,1.03,0.95h1.03v2.83c-0.55,0.07-1.21,0.11-1.8,0.11c-2.35,0-3.41-0.84-3.67-2.68
		H389.2z M383.59,57.82c2.68,0,5.43-1.5,5.43-5.06v-1.98c-0.55,0.44-1.32,0.66-2.35,0.77l-2.64,0.29c-3.05,0.37-3.96,1.43-3.96,3.12
		S381.21,57.82,383.59,57.82L383.59,57.82z"/>
	<path class="st0" d="M396.94,56.02V34.11h3.67v21.58c0,1.1,0.48,1.62,1.83,1.62h1.36v2.94c-0.73,0.07-1.47,0.11-2.05,0.11
		C398.63,60.36,396.94,59.19,396.94,56.02L396.94,56.02z"/>
</g>
<g>
	<g>
		<g>
			<polyline class="st0" points="179.85,39.18 179.85,34.1 161.74,34.1 161.74,60.23 179.85,60.23 179.85,54.93 169.08,54.93 
				169.08,49.14 178.04,49.14 178.04,44.06 169.08,44.06 169.08,39.18 179.85,39.18 			"/>
			<polyline class="st0" points="211.81,55.07 200.49,55.07 200.49,34.1 193.06,34.1 193.06,60.23 211.81,60.23 211.81,55.07 			"/>
			<path class="st0" d="M271.61,44.06c-5.01-1.13-6.76-1.26-6.76-3.25c0-1.85,2.48-2.43,3.91-2.43c2.32,0,5.04,0.54,7.81,1.97
				l2.02-4.81c-2.84-1.56-6.5-2.2-10.02-2.2c-6.91,0-11.55,2.8-11.74,8.27c-0.2,4.98,3.85,6.85,7.58,7.62
				c3.59,0.74,7.23,1.38,7.31,3.51c0.07,1.97-1.7,2.81-5.04,2.81c-3.09,0-5.97-0.99-8.91-2.22l-1.71,5.22
				c3.37,1.44,6.8,2.23,10.34,2.23c4.91,0,8.49-0.76,11.13-3.24c1.83-1.7,2.43-3.75,2.43-5.71
				C279.95,47.69,277.38,45.36,271.61,44.06"/>
			<polyline class="st0" points="151.21,39.25 151.21,34.1 128.42,34.1 128.42,39.25 136.12,39.25 136.12,60.23 143.5,60.23 
				143.5,39.25 151.21,39.25 			"/>
			<path class="st0" d="M237.14,34.1v16.6c0,1.3,0,1.66-0.08,2.17c-0.23,1.58-1.77,2.5-4.22,2.53c-1.81-0.03-3.14-0.56-3.76-1.51
				c-0.31-0.49-0.46-1.36-0.46-2.76V34.1h-7.7v18.01c0,2.5,0.33,3.62,1.46,5.04c1.86,2.33,5.48,3.55,10.48,3.55
				c0.05,0,0.11,0,0.16,0c0.03,0,0.07,0,0.11,0c6.68,0,10.13-2.61,11.13-5.05c0.5-1.18,0.54-1.74,0.54-4.13V34.1H237.14"/>
			<g>
				<path class="st0" d="M131.9,26.94l-43.18,8.6v3.01l0.14-0.04c28.53-6.93,43.04-11.1,43.16-11.13c0.16-0.04,0.22-0.17,0.2-0.27
					C132.19,27,132.07,26.91,131.9,26.94"/>
				<path class="st1" d="M95.65,29.34c0.67-0.43,0.86-0.16,0.66,0.32c-0.32,0.77-1.78,5.45-12.65,14.37
					c-2.84,2.32-4.85,3.63-8.94,6.05C81.42,40.71,91.18,32.25,95.65,29.34 M96.78,26.12c-2.1,0.12-5.99,3.23-8.12,5.08
					c-8.5,7.35-14.81,14.11-19.41,21.18c-9.58,5.13-21.78,10.4-33.91,14.52L35.06,67l-2.33,6.28l1.33-0.52
					c7.71-2.94,20.58-8.46,32.25-14.59c-0.66,1.75-0.99,3.36-0.99,4.83c0,1.1,0.18,2.11,0.55,3.04c0.73,1.84,2.18,3.24,4.18,4.04
					c2.99,1.19,7.06,1.22,11.71-0.19c11.87-3.6,25.96-14.65,29.03-16.85l0.11-0.08c0.12-0.09,0.13-0.22,0.08-0.31
					c-0.07-0.1-0.21-0.13-0.32-0.06l0,0l0,0l-0.15,0.09c-3.29,1.97-19.28,11.46-29.68,14.25c-5.29,1.42-9.33,0.64-10.85-1.49
					c-0.53-0.73-0.78-1.65-0.78-2.72c0-2.09,0.98-4.76,2.89-7.72c1.75-1,3.38-1.97,4.85-2.89c10.14-5.7,21.83-16.78,22.32-23.54
					c0-0.05,0-0.1,0-0.15c0-0.58-0.25-1.18-0.7-1.63C98.09,26.32,97.46,26.08,96.78,26.12z"/>
			</g>
			<polyline class="st0" points="88.57,35.57 43.14,45.34 41.38,50.06 88.71,38.55 88.79,38.53 88.79,35.52 88.57,35.57 			"/>
		</g>
	</g>
</g>
</svg>
